<mxfile host="app.diagrams.net" modified="2023-10-09T22:09:38.778Z" agent="Mozilla/5.0 (Macintosh; Intel Mac OS X 10_15_7) AppleWebKit/605.1.15 (KHTML, like Gecko) Version/15.4 Safari/605.1.15" etag="-TLRXNAbvciSZGP32QcD" version="22.0.4" type="github">
  <diagram name="Page-1" id="3O6GO63O9HqbY6GgcKNv">
    <mxGraphModel dx="1366" dy="766" grid="1" gridSize="10" guides="1" tooltips="1" connect="1" arrows="1" fold="1" page="1" pageScale="1" pageWidth="827" pageHeight="1169" math="0" shadow="0">
      <root>
        <mxCell id="0" />
        <mxCell id="1" parent="0" />
        <mxCell id="za3H8Gn-evuQM6vgMnau-3" style="edgeStyle=orthogonalEdgeStyle;rounded=0;orthogonalLoop=1;jettySize=auto;html=1;exitX=0.5;exitY=1;exitDx=0;exitDy=0;entryX=0.5;entryY=0;entryDx=0;entryDy=0;endArrow=none;endFill=0;" parent="1" source="za3H8Gn-evuQM6vgMnau-1" target="za3H8Gn-evuQM6vgMnau-2" edge="1">
          <mxGeometry relative="1" as="geometry" />
        </mxCell>
        <mxCell id="za3H8Gn-evuQM6vgMnau-1" value="Ingredients" style="ellipse;whiteSpace=wrap;html=1;aspect=fixed;" parent="1" vertex="1">
          <mxGeometry x="160" y="160" width="80" height="80" as="geometry" />
        </mxCell>
        <mxCell id="za3H8Gn-evuQM6vgMnau-2" value="Bowl" style="ellipse;whiteSpace=wrap;html=1;aspect=fixed;" parent="1" vertex="1">
          <mxGeometry x="160" y="280" width="80" height="80" as="geometry" />
        </mxCell>
        <mxCell id="za3H8Gn-evuQM6vgMnau-4" value="a) Chicken Noodle Soup" style="text;html=1;strokeColor=none;fillColor=none;align=center;verticalAlign=middle;whiteSpace=wrap;rounded=0;" parent="1" vertex="1">
          <mxGeometry x="120" y="370" width="160" height="30" as="geometry" />
        </mxCell>
        <mxCell id="za3H8Gn-evuQM6vgMnau-7" value="Bowl" style="ellipse;whiteSpace=wrap;html=1;aspect=fixed;" parent="1" vertex="1">
          <mxGeometry x="455" y="280" width="80" height="80" as="geometry" />
        </mxCell>
        <mxCell id="za3H8Gn-evuQM6vgMnau-8" value="b) Chocolate Pudding" style="text;html=1;strokeColor=none;fillColor=none;align=center;verticalAlign=middle;whiteSpace=wrap;rounded=0;" parent="1" vertex="1">
          <mxGeometry x="415" y="370" width="160" height="30" as="geometry" />
        </mxCell>
        <mxCell id="za3H8Gn-evuQM6vgMnau-14" style="edgeStyle=orthogonalEdgeStyle;rounded=0;orthogonalLoop=1;jettySize=auto;html=1;exitX=1;exitY=0.5;exitDx=0;exitDy=0;entryX=0;entryY=0.5;entryDx=0;entryDy=0;endArrow=none;endFill=0;" parent="1" source="za3H8Gn-evuQM6vgMnau-9" target="za3H8Gn-evuQM6vgMnau-10" edge="1">
          <mxGeometry relative="1" as="geometry" />
        </mxCell>
        <mxCell id="za3H8Gn-evuQM6vgMnau-9" value="Borth" style="ellipse;whiteSpace=wrap;html=1;aspect=fixed;" parent="1" vertex="1">
          <mxGeometry x="375" y="160" width="80" height="80" as="geometry" />
        </mxCell>
        <mxCell id="za3H8Gn-evuQM6vgMnau-10" value="Cooked ingredients" style="ellipse;whiteSpace=wrap;html=1;aspect=fixed;" parent="1" vertex="1">
          <mxGeometry x="535" y="160" width="80" height="80" as="geometry" />
        </mxCell>
        <mxCell id="za3H8Gn-evuQM6vgMnau-12" value="" style="endArrow=none;html=1;rounded=0;entryX=0;entryY=0;entryDx=0;entryDy=0;exitX=1;exitY=1;exitDx=0;exitDy=0;" parent="1" source="za3H8Gn-evuQM6vgMnau-9" target="za3H8Gn-evuQM6vgMnau-7" edge="1">
          <mxGeometry width="50" height="50" relative="1" as="geometry">
            <mxPoint x="315" y="440" as="sourcePoint" />
            <mxPoint x="365" y="390" as="targetPoint" />
          </mxGeometry>
        </mxCell>
        <mxCell id="za3H8Gn-evuQM6vgMnau-13" value="" style="endArrow=none;html=1;rounded=0;exitX=1;exitY=0;exitDx=0;exitDy=0;entryX=0;entryY=1;entryDx=0;entryDy=0;" parent="1" source="za3H8Gn-evuQM6vgMnau-7" target="za3H8Gn-evuQM6vgMnau-10" edge="1">
          <mxGeometry width="50" height="50" relative="1" as="geometry">
            <mxPoint x="645" y="320" as="sourcePoint" />
            <mxPoint x="695" y="270" as="targetPoint" />
          </mxGeometry>
        </mxCell>
        <mxCell id="za3H8Gn-evuQM6vgMnau-15" value="Bowl-like container" style="ellipse;whiteSpace=wrap;html=1;aspect=fixed;" parent="1" vertex="1">
          <mxGeometry x="770" y="280" width="80" height="80" as="geometry" />
        </mxCell>
        <mxCell id="za3H8Gn-evuQM6vgMnau-16" value="c) French Onion Soup in a Bread Bowl" style="text;html=1;strokeColor=none;fillColor=none;align=center;verticalAlign=middle;whiteSpace=wrap;rounded=0;" parent="1" vertex="1">
          <mxGeometry x="705" y="370" width="210" height="30" as="geometry" />
        </mxCell>
        <mxCell id="za3H8Gn-evuQM6vgMnau-17" style="edgeStyle=orthogonalEdgeStyle;rounded=0;orthogonalLoop=1;jettySize=auto;html=1;exitX=1;exitY=0.5;exitDx=0;exitDy=0;entryX=0;entryY=0.5;entryDx=0;entryDy=0;endArrow=none;endFill=0;" parent="1" source="za3H8Gn-evuQM6vgMnau-18" target="za3H8Gn-evuQM6vgMnau-19" edge="1">
          <mxGeometry relative="1" as="geometry" />
        </mxCell>
        <mxCell id="za3H8Gn-evuQM6vgMnau-18" value="Borth" style="ellipse;whiteSpace=wrap;html=1;aspect=fixed;" parent="1" vertex="1">
          <mxGeometry x="690" y="160" width="80" height="80" as="geometry" />
        </mxCell>
        <mxCell id="za3H8Gn-evuQM6vgMnau-19" value="Cooked ingredients" style="ellipse;whiteSpace=wrap;html=1;aspect=fixed;" parent="1" vertex="1">
          <mxGeometry x="850" y="160" width="80" height="80" as="geometry" />
        </mxCell>
        <mxCell id="za3H8Gn-evuQM6vgMnau-20" value="" style="endArrow=none;html=1;rounded=0;entryX=0;entryY=0;entryDx=0;entryDy=0;exitX=1;exitY=1;exitDx=0;exitDy=0;" parent="1" source="za3H8Gn-evuQM6vgMnau-18" target="za3H8Gn-evuQM6vgMnau-15" edge="1">
          <mxGeometry width="50" height="50" relative="1" as="geometry">
            <mxPoint x="630" y="440" as="sourcePoint" />
            <mxPoint x="680" y="390" as="targetPoint" />
          </mxGeometry>
        </mxCell>
        <mxCell id="za3H8Gn-evuQM6vgMnau-21" value="" style="endArrow=none;html=1;rounded=0;exitX=1;exitY=0;exitDx=0;exitDy=0;entryX=0;entryY=1;entryDx=0;entryDy=0;" parent="1" source="za3H8Gn-evuQM6vgMnau-15" target="za3H8Gn-evuQM6vgMnau-19" edge="1">
          <mxGeometry width="50" height="50" relative="1" as="geometry">
            <mxPoint x="960" y="320" as="sourcePoint" />
            <mxPoint x="1010" y="270" as="targetPoint" />
          </mxGeometry>
        </mxCell>
        <mxCell id="za3H8Gn-evuQM6vgMnau-22" value="Bowl-like container" style="ellipse;whiteSpace=wrap;html=1;aspect=fixed;" parent="1" vertex="1">
          <mxGeometry x="770" y="700" width="80" height="80" as="geometry" />
        </mxCell>
        <mxCell id="za3H8Gn-evuQM6vgMnau-23" value="d) Melted ice cream" style="text;html=1;strokeColor=none;fillColor=none;align=center;verticalAlign=middle;whiteSpace=wrap;rounded=0;" parent="1" vertex="1">
          <mxGeometry x="705" y="790" width="210" height="30" as="geometry" />
        </mxCell>
        <mxCell id="za3H8Gn-evuQM6vgMnau-24" style="edgeStyle=orthogonalEdgeStyle;rounded=0;orthogonalLoop=1;jettySize=auto;html=1;exitX=1;exitY=0.5;exitDx=0;exitDy=0;entryX=0;entryY=0.5;entryDx=0;entryDy=0;endArrow=none;endFill=0;" parent="1" source="za3H8Gn-evuQM6vgMnau-25" target="za3H8Gn-evuQM6vgMnau-26" edge="1">
          <mxGeometry relative="1" as="geometry" />
        </mxCell>
        <mxCell id="za3H8Gn-evuQM6vgMnau-25" value="Borth" style="ellipse;whiteSpace=wrap;html=1;aspect=fixed;" parent="1" vertex="1">
          <mxGeometry x="690" y="580" width="80" height="80" as="geometry" />
        </mxCell>
        <mxCell id="za3H8Gn-evuQM6vgMnau-26" value="Cooked ingredients" style="ellipse;whiteSpace=wrap;html=1;aspect=fixed;" parent="1" vertex="1">
          <mxGeometry x="850" y="580" width="80" height="80" as="geometry" />
        </mxCell>
        <mxCell id="za3H8Gn-evuQM6vgMnau-27" value="" style="endArrow=none;html=1;rounded=0;entryX=0;entryY=0;entryDx=0;entryDy=0;exitX=1;exitY=1;exitDx=0;exitDy=0;" parent="1" source="za3H8Gn-evuQM6vgMnau-25" target="za3H8Gn-evuQM6vgMnau-22" edge="1">
          <mxGeometry width="50" height="50" relative="1" as="geometry">
            <mxPoint x="630" y="860" as="sourcePoint" />
            <mxPoint x="680" y="810" as="targetPoint" />
          </mxGeometry>
        </mxCell>
        <mxCell id="za3H8Gn-evuQM6vgMnau-28" value="" style="endArrow=none;html=1;rounded=0;exitX=1;exitY=0;exitDx=0;exitDy=0;entryX=0;entryY=1;entryDx=0;entryDy=0;" parent="1" source="za3H8Gn-evuQM6vgMnau-22" target="za3H8Gn-evuQM6vgMnau-26" edge="1">
          <mxGeometry width="50" height="50" relative="1" as="geometry">
            <mxPoint x="960" y="740" as="sourcePoint" />
            <mxPoint x="1010" y="690" as="targetPoint" />
          </mxGeometry>
        </mxCell>
        <mxCell id="za3H8Gn-evuQM6vgMnau-29" value="Served hot" style="ellipse;whiteSpace=wrap;html=1;aspect=fixed;" parent="1" vertex="1">
          <mxGeometry x="770" y="460" width="80" height="80" as="geometry" />
        </mxCell>
        <mxCell id="za3H8Gn-evuQM6vgMnau-30" value="" style="endArrow=none;html=1;rounded=0;entryX=0;entryY=1;entryDx=0;entryDy=0;exitX=1;exitY=0;exitDx=0;exitDy=0;" parent="1" source="za3H8Gn-evuQM6vgMnau-25" target="za3H8Gn-evuQM6vgMnau-29" edge="1">
          <mxGeometry width="50" height="50" relative="1" as="geometry">
            <mxPoint x="515" y="670" as="sourcePoint" />
            <mxPoint x="565" y="620" as="targetPoint" />
          </mxGeometry>
        </mxCell>
        <mxCell id="za3H8Gn-evuQM6vgMnau-31" value="" style="endArrow=none;html=1;rounded=0;exitX=1;exitY=1;exitDx=0;exitDy=0;entryX=0;entryY=0;entryDx=0;entryDy=0;" parent="1" source="za3H8Gn-evuQM6vgMnau-29" target="za3H8Gn-evuQM6vgMnau-26" edge="1">
          <mxGeometry width="50" height="50" relative="1" as="geometry">
            <mxPoint x="895" y="590" as="sourcePoint" />
            <mxPoint x="945" y="540" as="targetPoint" />
          </mxGeometry>
        </mxCell>
        <mxCell id="za3H8Gn-evuQM6vgMnau-32" value="Bowl-like container" style="ellipse;whiteSpace=wrap;html=1;aspect=fixed;" parent="1" vertex="1">
          <mxGeometry x="460" y="700" width="80" height="80" as="geometry" />
        </mxCell>
        <mxCell id="za3H8Gn-evuQM6vgMnau-33" value="e) Pho" style="text;html=1;strokeColor=none;fillColor=none;align=center;verticalAlign=middle;whiteSpace=wrap;rounded=0;" parent="1" vertex="1">
          <mxGeometry x="395" y="790" width="210" height="30" as="geometry" />
        </mxCell>
        <mxCell id="za3H8Gn-evuQM6vgMnau-34" style="edgeStyle=orthogonalEdgeStyle;rounded=0;orthogonalLoop=1;jettySize=auto;html=1;exitX=1;exitY=0.5;exitDx=0;exitDy=0;entryX=0;entryY=0.5;entryDx=0;entryDy=0;endArrow=none;endFill=0;" parent="1" source="za3H8Gn-evuQM6vgMnau-35" target="za3H8Gn-evuQM6vgMnau-36" edge="1">
          <mxGeometry relative="1" as="geometry" />
        </mxCell>
        <mxCell id="za3H8Gn-evuQM6vgMnau-35" value="Borth" style="ellipse;whiteSpace=wrap;html=1;aspect=fixed;" parent="1" vertex="1">
          <mxGeometry x="380" y="580" width="80" height="80" as="geometry" />
        </mxCell>
        <mxCell id="za3H8Gn-evuQM6vgMnau-36" value="Other ingredients" style="ellipse;whiteSpace=wrap;html=1;aspect=fixed;" parent="1" vertex="1">
          <mxGeometry x="540" y="580" width="80" height="80" as="geometry" />
        </mxCell>
        <mxCell id="za3H8Gn-evuQM6vgMnau-37" value="" style="endArrow=none;html=1;rounded=0;entryX=0;entryY=0;entryDx=0;entryDy=0;exitX=1;exitY=1;exitDx=0;exitDy=0;" parent="1" source="za3H8Gn-evuQM6vgMnau-35" target="za3H8Gn-evuQM6vgMnau-32" edge="1">
          <mxGeometry width="50" height="50" relative="1" as="geometry">
            <mxPoint x="320" y="860" as="sourcePoint" />
            <mxPoint x="370" y="810" as="targetPoint" />
          </mxGeometry>
        </mxCell>
        <mxCell id="za3H8Gn-evuQM6vgMnau-38" value="" style="endArrow=none;html=1;rounded=0;exitX=1;exitY=0;exitDx=0;exitDy=0;entryX=0;entryY=1;entryDx=0;entryDy=0;" parent="1" source="za3H8Gn-evuQM6vgMnau-32" target="za3H8Gn-evuQM6vgMnau-36" edge="1">
          <mxGeometry width="50" height="50" relative="1" as="geometry">
            <mxPoint x="650" y="740" as="sourcePoint" />
            <mxPoint x="700" y="690" as="targetPoint" />
          </mxGeometry>
        </mxCell>
        <mxCell id="za3H8Gn-evuQM6vgMnau-39" value="Served hot" style="ellipse;whiteSpace=wrap;html=1;aspect=fixed;" parent="1" vertex="1">
          <mxGeometry x="460" y="460" width="80" height="80" as="geometry" />
        </mxCell>
        <mxCell id="za3H8Gn-evuQM6vgMnau-40" value="" style="endArrow=none;html=1;rounded=0;entryX=0;entryY=1;entryDx=0;entryDy=0;exitX=1;exitY=0;exitDx=0;exitDy=0;" parent="1" source="za3H8Gn-evuQM6vgMnau-35" target="za3H8Gn-evuQM6vgMnau-39" edge="1">
          <mxGeometry width="50" height="50" relative="1" as="geometry">
            <mxPoint x="205" y="670" as="sourcePoint" />
            <mxPoint x="255" y="620" as="targetPoint" />
          </mxGeometry>
        </mxCell>
        <mxCell id="za3H8Gn-evuQM6vgMnau-41" value="" style="endArrow=none;html=1;rounded=0;exitX=1;exitY=1;exitDx=0;exitDy=0;entryX=0;entryY=0;entryDx=0;entryDy=0;" parent="1" source="za3H8Gn-evuQM6vgMnau-39" target="za3H8Gn-evuQM6vgMnau-36" edge="1">
          <mxGeometry width="50" height="50" relative="1" as="geometry">
            <mxPoint x="585" y="590" as="sourcePoint" />
            <mxPoint x="635" y="540" as="targetPoint" />
          </mxGeometry>
        </mxCell>
        <mxCell id="za3H8Gn-evuQM6vgMnau-42" value="Bowl-like container" style="ellipse;whiteSpace=wrap;html=1;aspect=fixed;" parent="1" vertex="1">
          <mxGeometry x="160" y="700" width="80" height="80" as="geometry" />
        </mxCell>
        <mxCell id="za3H8Gn-evuQM6vgMnau-43" value="f) Stew" style="text;html=1;strokeColor=none;fillColor=none;align=center;verticalAlign=middle;whiteSpace=wrap;rounded=0;" parent="1" vertex="1">
          <mxGeometry x="95" y="790" width="210" height="30" as="geometry" />
        </mxCell>
        <mxCell id="za3H8Gn-evuQM6vgMnau-44" style="edgeStyle=orthogonalEdgeStyle;rounded=0;orthogonalLoop=1;jettySize=auto;html=1;exitX=1;exitY=0.5;exitDx=0;exitDy=0;entryX=0;entryY=0.5;entryDx=0;entryDy=0;endArrow=none;endFill=0;" parent="1" source="za3H8Gn-evuQM6vgMnau-45" target="za3H8Gn-evuQM6vgMnau-46" edge="1">
          <mxGeometry relative="1" as="geometry" />
        </mxCell>
        <mxCell id="za3H8Gn-evuQM6vgMnau-45" value="Borth" style="ellipse;whiteSpace=wrap;html=1;aspect=fixed;" parent="1" vertex="1">
          <mxGeometry x="80" y="580" width="80" height="80" as="geometry" />
        </mxCell>
        <mxCell id="za3H8Gn-evuQM6vgMnau-46" value="Other ingredients" style="ellipse;whiteSpace=wrap;html=1;aspect=fixed;" parent="1" vertex="1">
          <mxGeometry x="240" y="580" width="80" height="80" as="geometry" />
        </mxCell>
        <mxCell id="za3H8Gn-evuQM6vgMnau-47" value="" style="endArrow=none;html=1;rounded=0;entryX=0;entryY=0;entryDx=0;entryDy=0;exitX=1;exitY=1;exitDx=0;exitDy=0;" parent="1" source="za3H8Gn-evuQM6vgMnau-45" target="za3H8Gn-evuQM6vgMnau-42" edge="1">
          <mxGeometry width="50" height="50" relative="1" as="geometry">
            <mxPoint x="20" y="860" as="sourcePoint" />
            <mxPoint x="70" y="810" as="targetPoint" />
          </mxGeometry>
        </mxCell>
        <mxCell id="za3H8Gn-evuQM6vgMnau-48" value="" style="endArrow=none;html=1;rounded=0;exitX=1;exitY=0;exitDx=0;exitDy=0;entryX=0;entryY=1;entryDx=0;entryDy=0;" parent="1" source="za3H8Gn-evuQM6vgMnau-42" target="za3H8Gn-evuQM6vgMnau-46" edge="1">
          <mxGeometry width="50" height="50" relative="1" as="geometry">
            <mxPoint x="350" y="740" as="sourcePoint" />
            <mxPoint x="400" y="690" as="targetPoint" />
          </mxGeometry>
        </mxCell>
        <mxCell id="eOGm5hUcNGz6OWNYhBJp-2" style="edgeStyle=orthogonalEdgeStyle;rounded=0;orthogonalLoop=1;jettySize=auto;html=1;exitX=1;exitY=0.5;exitDx=0;exitDy=0;entryX=0;entryY=0.5;entryDx=0;entryDy=0;endArrow=none;endFill=0;" edge="1" parent="1" source="za3H8Gn-evuQM6vgMnau-49" target="eOGm5hUcNGz6OWNYhBJp-1">
          <mxGeometry relative="1" as="geometry" />
        </mxCell>
        <mxCell id="za3H8Gn-evuQM6vgMnau-49" value="Served hot" style="ellipse;whiteSpace=wrap;html=1;aspect=fixed;" parent="1" vertex="1">
          <mxGeometry x="160" y="460" width="80" height="80" as="geometry" />
        </mxCell>
        <mxCell id="za3H8Gn-evuQM6vgMnau-50" value="" style="endArrow=none;html=1;rounded=0;entryX=0;entryY=1;entryDx=0;entryDy=0;exitX=1;exitY=0;exitDx=0;exitDy=0;" parent="1" source="za3H8Gn-evuQM6vgMnau-45" target="za3H8Gn-evuQM6vgMnau-49" edge="1">
          <mxGeometry width="50" height="50" relative="1" as="geometry">
            <mxPoint x="-95" y="670" as="sourcePoint" />
            <mxPoint x="-45" y="620" as="targetPoint" />
          </mxGeometry>
        </mxCell>
        <mxCell id="za3H8Gn-evuQM6vgMnau-51" value="" style="endArrow=none;html=1;rounded=0;exitX=1;exitY=1;exitDx=0;exitDy=0;entryX=0;entryY=0;entryDx=0;entryDy=0;" parent="1" source="za3H8Gn-evuQM6vgMnau-49" target="za3H8Gn-evuQM6vgMnau-46" edge="1">
          <mxGeometry width="50" height="50" relative="1" as="geometry">
            <mxPoint x="285" y="590" as="sourcePoint" />
            <mxPoint x="335" y="540" as="targetPoint" />
          </mxGeometry>
        </mxCell>
        <mxCell id="za3H8Gn-evuQM6vgMnau-52" value="" style="shape=flexArrow;endArrow=classic;html=1;rounded=0;endWidth=36;endSize=7.33;" parent="1" edge="1">
          <mxGeometry width="50" height="50" relative="1" as="geometry">
            <mxPoint x="280" y="260" as="sourcePoint" />
            <mxPoint x="340" y="260" as="targetPoint" />
          </mxGeometry>
        </mxCell>
        <mxCell id="za3H8Gn-evuQM6vgMnau-53" value="" style="shape=flexArrow;endArrow=classic;html=1;rounded=0;endWidth=36;endSize=7.33;" parent="1" edge="1">
          <mxGeometry width="50" height="50" relative="1" as="geometry">
            <mxPoint x="620" y="260" as="sourcePoint" />
            <mxPoint x="680" y="260" as="targetPoint" />
          </mxGeometry>
        </mxCell>
        <mxCell id="za3H8Gn-evuQM6vgMnau-54" value="" style="shape=flexArrow;endArrow=classic;html=1;rounded=0;endWidth=36;endSize=7.33;" parent="1" edge="1">
          <mxGeometry width="50" height="50" relative="1" as="geometry">
            <mxPoint x="809" y="401" as="sourcePoint" />
            <mxPoint x="810" y="450" as="targetPoint" />
          </mxGeometry>
        </mxCell>
        <mxCell id="za3H8Gn-evuQM6vgMnau-56" value="" style="shape=flexArrow;endArrow=classic;html=1;rounded=0;endWidth=36;endSize=7.33;" parent="1" edge="1">
          <mxGeometry width="50" height="50" relative="1" as="geometry">
            <mxPoint x="680" y="619.5" as="sourcePoint" />
            <mxPoint x="630" y="619.5" as="targetPoint" />
          </mxGeometry>
        </mxCell>
        <mxCell id="za3H8Gn-evuQM6vgMnau-57" value="" style="shape=flexArrow;endArrow=classic;html=1;rounded=0;endWidth=36;endSize=7.33;" parent="1" edge="1">
          <mxGeometry width="50" height="50" relative="1" as="geometry">
            <mxPoint x="375" y="619.5" as="sourcePoint" />
            <mxPoint x="325" y="619.5" as="targetPoint" />
          </mxGeometry>
        </mxCell>
        <mxCell id="eOGm5hUcNGz6OWNYhBJp-1" value="Eaten with a spoon" style="ellipse;whiteSpace=wrap;html=1;aspect=fixed;" vertex="1" parent="1">
          <mxGeometry x="270" y="460" width="80" height="80" as="geometry" />
        </mxCell>
        <mxCell id="eOGm5hUcNGz6OWNYhBJp-3" value="Is it liquid?" style="ellipse;whiteSpace=wrap;html=1;aspect=fixed;" vertex="1" parent="1">
          <mxGeometry x="1370" y="180" width="80" height="80" as="geometry" />
        </mxCell>
        <mxCell id="eOGm5hUcNGz6OWNYhBJp-4" value="Served at lunch or dinner?" style="ellipse;whiteSpace=wrap;html=1;aspect=fixed;" vertex="1" parent="1">
          <mxGeometry x="1270" y="290" width="80" height="80" as="geometry" />
        </mxCell>
        <mxCell id="eOGm5hUcNGz6OWNYhBJp-5" value="Not a soup" style="rounded=1;whiteSpace=wrap;html=1;" vertex="1" parent="1">
          <mxGeometry x="1335" y="410" width="90" height="40" as="geometry" />
        </mxCell>
        <mxCell id="eOGm5hUcNGz6OWNYhBJp-6" value="Soup" style="rounded=1;whiteSpace=wrap;html=1;" vertex="1" parent="1">
          <mxGeometry x="1180" y="410" width="90" height="40" as="geometry" />
        </mxCell>
        <mxCell id="eOGm5hUcNGz6OWNYhBJp-7" value="Not a soup" style="rounded=1;whiteSpace=wrap;html=1;" vertex="1" parent="1">
          <mxGeometry x="1450" y="320" width="90" height="40" as="geometry" />
        </mxCell>
        <mxCell id="eOGm5hUcNGz6OWNYhBJp-9" value="" style="endArrow=none;html=1;rounded=0;entryX=0;entryY=1;entryDx=0;entryDy=0;exitX=1;exitY=0;exitDx=0;exitDy=0;" edge="1" parent="1" source="eOGm5hUcNGz6OWNYhBJp-4" target="eOGm5hUcNGz6OWNYhBJp-3">
          <mxGeometry width="50" height="50" relative="1" as="geometry">
            <mxPoint x="1210" y="280" as="sourcePoint" />
            <mxPoint x="1260" y="230" as="targetPoint" />
          </mxGeometry>
        </mxCell>
        <mxCell id="eOGm5hUcNGz6OWNYhBJp-11" value="Yes" style="edgeLabel;html=1;align=center;verticalAlign=middle;resizable=0;points=[];" vertex="1" connectable="0" parent="eOGm5hUcNGz6OWNYhBJp-9">
          <mxGeometry x="-0.0415" y="-3" relative="1" as="geometry">
            <mxPoint y="2" as="offset" />
          </mxGeometry>
        </mxCell>
        <mxCell id="eOGm5hUcNGz6OWNYhBJp-10" value="" style="endArrow=none;html=1;rounded=0;entryX=1;entryY=1;entryDx=0;entryDy=0;exitX=0.25;exitY=0;exitDx=0;exitDy=0;" edge="1" parent="1" source="eOGm5hUcNGz6OWNYhBJp-7" target="eOGm5hUcNGz6OWNYhBJp-3">
          <mxGeometry width="50" height="50" relative="1" as="geometry">
            <mxPoint x="1348" y="312" as="sourcePoint" />
            <mxPoint x="1392" y="258" as="targetPoint" />
          </mxGeometry>
        </mxCell>
        <mxCell id="eOGm5hUcNGz6OWNYhBJp-12" value="No" style="edgeLabel;html=1;align=center;verticalAlign=middle;resizable=0;points=[];" vertex="1" connectable="0" parent="eOGm5hUcNGz6OWNYhBJp-10">
          <mxGeometry x="0.0737" y="-1" relative="1" as="geometry">
            <mxPoint x="-5" y="-1" as="offset" />
          </mxGeometry>
        </mxCell>
        <mxCell id="eOGm5hUcNGz6OWNYhBJp-13" value="" style="endArrow=none;html=1;rounded=0;exitX=0.75;exitY=0;exitDx=0;exitDy=0;entryX=0;entryY=1;entryDx=0;entryDy=0;" edge="1" parent="1" source="eOGm5hUcNGz6OWNYhBJp-6" target="eOGm5hUcNGz6OWNYhBJp-4">
          <mxGeometry width="50" height="50" relative="1" as="geometry">
            <mxPoint x="1240" y="412" as="sourcePoint" />
            <mxPoint x="1260" y="360" as="targetPoint" />
          </mxGeometry>
        </mxCell>
        <mxCell id="eOGm5hUcNGz6OWNYhBJp-14" value="Yes" style="edgeLabel;html=1;align=center;verticalAlign=middle;resizable=0;points=[];" vertex="1" connectable="0" parent="eOGm5hUcNGz6OWNYhBJp-13">
          <mxGeometry x="-0.0415" y="-3" relative="1" as="geometry">
            <mxPoint y="2" as="offset" />
          </mxGeometry>
        </mxCell>
        <mxCell id="eOGm5hUcNGz6OWNYhBJp-15" value="" style="endArrow=none;html=1;rounded=0;exitX=0.25;exitY=0;exitDx=0;exitDy=0;entryX=1;entryY=1;entryDx=0;entryDy=0;" edge="1" parent="1" source="eOGm5hUcNGz6OWNYhBJp-5" target="eOGm5hUcNGz6OWNYhBJp-4">
          <mxGeometry width="50" height="50" relative="1" as="geometry">
            <mxPoint x="1330" y="422" as="sourcePoint" />
            <mxPoint x="1364" y="370" as="targetPoint" />
          </mxGeometry>
        </mxCell>
        <mxCell id="eOGm5hUcNGz6OWNYhBJp-16" value="No" style="edgeLabel;html=1;align=center;verticalAlign=middle;resizable=0;points=[];" vertex="1" connectable="0" parent="eOGm5hUcNGz6OWNYhBJp-15">
          <mxGeometry x="-0.0415" y="-3" relative="1" as="geometry">
            <mxPoint y="2" as="offset" />
          </mxGeometry>
        </mxCell>
      </root>
    </mxGraphModel>
  </diagram>
</mxfile>
